<?xml version="1.0" encoding="UTF-8" standalone="no"?>
<svg
   viewBox="0 0 64000 123328"
   width="1024"
   height="1024"
   fill="none"
   version="1.0"
   id="svg4"
   sodipodi:docname="favicon-centered.svg"
   inkscape:version="1.1.2 (0a00cf5339, 2022-02-04)"
   xmlns:inkscape="http://www.inkscape.org/namespaces/inkscape"
   xmlns:sodipodi="http://sodipodi.sourceforge.net/DTD/sodipodi-0.dtd"
   xmlns="http://www.w3.org/2000/svg"
   xmlns:svg="http://www.w3.org/2000/svg">
  <defs
     id="defs8" />
  <sodipodi:namedview
     id="namedview6"
     pagecolor="#ffffff"
     bordercolor="#666666"
     borderopacity="1.0"
     inkscape:pageshadow="2"
     inkscape:pageopacity="0.0"
     inkscape:pagecheckerboard="0"
     showgrid="false"
     inkscape:zoom="0.38183594"
     inkscape:cx="-223.91816"
     inkscape:cy="30.117647"
     inkscape:window-width="1920"
     inkscape:window-height="1016"
     inkscape:window-x="0"
     inkscape:window-y="0"
     inkscape:window-maximized="1"
     inkscape:current-layer="svg4" />
  <path
     style="fill:#000000;fill-opacity:1;fill-rule:evenodd;stroke:#000000;stroke-width:184.764;stroke-linecap:round;stroke-linejoin:round;stroke-miterlimit:4;stroke-dasharray:none;stroke-opacity:1"
     d="m 31260.944,21385.465 c 6743.884,0 16351.608,3233.367 12286.8,19584.976 -1940.019,7667.704 -6559.116,13672.532 -10346.778,19123.07 l 19862.123,-1108.585 c -554.291,2401.931 -554.291,4803.862 0,7205.793 l -19862.123,-1108.584 1385.731,36860.405 c -2679.079,-831.43 -4896.246,-554.29 -6928.649,0 l 1200.966,-36860.405 -17922.103,1108.584 c 554.292,-2401.931 646.674,-4803.862 0,-7205.793 l 17922.103,1108.585 C 25533.262,54181.063 20821.781,48915.293 19158.906,40231.386 15833.155,22678.812 24794.207,21385.465 30983.798,21385.465 c 92.382,0 184.765,0 277.146,0 z m 184.765,4526.715 c -7113.413,-92.381 -14411.588,10162.018 -554.292,30855.578 14596.349,-20508.796 7667.702,-30855.578 554.292,-30855.578 z"
     id="path1045" />
</svg>
